# xmcd
#
# Track frame offsets:
# 150
# 13428
# 31235
# 43901
# 58958
# 73688
# 90158
# 107772
# 132613
# 153292
# 167754
# 181078
# 195138
#
# Disc length: 2819 seconds
#
#
# Revision: 0
# Processed by: cddbd v1.5.1PL0 Copyright (c) Steve Scherf et al.
# Submitted via: FreeRIP 2.90 
#
DISCID=ab0b010d
DTITLE=Various Artist - The Music of Chillifest 2004
DYEAR=2004
DGENRE=Southern Rock
TTITLE0=Aaron Holt - Bake
TTITLE1=Jason Boland - Mexico or Crazy
TTITLE2=Jack Ingram - Attitude and Driving
TTITLE3=Randy Rogers - Like it use to Be
TTITLE4=Owen Temple - Dry Creek
TTITLE5=Aaron Watson - Off the Record
TTITLE6=Cross Candian Ragweed - Long Way Home
TTITLE7=Gary P Nunn - London Homesick Blues
TTITLE8=Roger Creager - Fun All Wrong
TTITLE9=Owen Temple - For Old Time Sake
TTITLE10=Aaron Watson - I don't want You to Go
TTITLE11=Phil Pritchett - God Save the King
TTITLE12=Honeybrowne - A Lullaby
EXTD=Aggie96 and Millerlite present 
EXTT0=
EXTT1=
EXTT2=
EXTT3=
EXTT4=
EXTT5=
EXTT6=
EXTT7=
EXTT8=
EXTT9=
EXTT10=
EXTT11=
EXTT12=
PLAYORDER=
